<svg id="favorite_border-24px" xmlns="http://www.w3.org/2000/svg" width="35.164" height="35.164" viewBox="0 0 35.164 35.164">
  <path id="Path_371" data-name="Path 371" d="M0,0H35.164V35.164H0Z" fill="none"/>
  <path id="Path_372" data-name="Path 372" d="M27.877,4.451A8.491,8.491,0,0,0,16.654,6.063,8.475,8.475,0,0,0,5.43,4.451,8.017,8.017,0,0,0,2,10.736C1.8,16.421,6.837,20.978,14.529,27.967l.147.132a2.924,2.924,0,0,0,3.941-.015l.161-.147C26.47,20.963,31.5,16.407,31.306,10.722a8.012,8.012,0,0,0-3.429-6.271ZM16.8,25.784l-.147.147-.147-.147C9.533,19.469,4.932,15.293,4.932,11.059A5.008,5.008,0,0,1,10.06,5.931a5.728,5.728,0,0,1,5.231,3.458h2.74a5.692,5.692,0,0,1,5.216-3.458,5.008,5.008,0,0,1,5.128,5.128C28.375,15.293,23.774,19.469,16.8,25.784Z" transform="translate(0.928 1.395)" fill="#fff"/>
</svg>
